<svg xmlns="http://www.w3.org/2000/svg" viewBox="0 0 1200 800" font-family="'Inter Tight', 'Inter', -apple-system, system-ui, sans-serif">
  <defs>
    <linearGradient id="bg9" x1="0%" y1="0%" x2="0%" y2="100%">
      <stop offset="0%" stop-color="#FAFAF7"/>
      <stop offset="100%" stop-color="#F4F1EA"/>
    </linearGradient>
    <filter id="soft-shadow-9" x="-20%" y="-20%" width="140%" height="140%">
      <feGaussianBlur in="SourceAlpha" stdDeviation="6"/>
      <feOffset dx="0" dy="2"/>
      <feComponentTransfer><feFuncA type="linear" slope="0.06"/></feComponentTransfer>
      <feMerge><feMergeNode/><feMergeNode in="SourceGraphic"/></feMerge>
    </filter>
    <marker id="arr-bd" viewBox="0 0 10 10" refX="9" refY="5" markerWidth="7" markerHeight="7" orient="auto">
      <path d="M 0 0 L 10 5 L 0 10 z" fill="#0F1419"/>
    </marker>
  </defs>

  <rect width="1200" height="800" fill="url(#bg9)"/>

  <!-- HEADER -->
  <text x="80" y="80" font-size="13" font-weight="600" fill="#9CA3AF" letter-spacing="2">MODULO 2  ·  INFOGRAFICA 09</text>
  <text x="80" y="125" font-size="38" font-weight="700" fill="#0F1419" letter-spacing="-1.2">I tre vertici di ogni app web</text>
  <text x="80" y="160" font-size="17" fill="#6B7280" letter-spacing="-0.2">Client, server e database — l'architettura essenziale di qualsiasi sito moderno.</text>

  <!-- CONTENUTO y>=200 -->

  <!-- Triangle vertices -->
  <g transform="translate(0, 220)">

    <!-- CLIENT (top) -->
    <g transform="translate(450, 0)" filter="url(#soft-shadow-9)">
      <rect x="0" y="0" width="280" height="120" rx="14" fill="#FFFFFF" stroke="#2563EB" stroke-width="1.5"/>
      <text x="20" y="34" font-size="11" font-weight="700" fill="#2563EB" letter-spacing="2">VERTICE 01</text>
      <g transform="translate(50, 80)" stroke="#0F1419" stroke-width="1.5" fill="none" stroke-linecap="round" stroke-linejoin="round">
        <rect x="-18" y="-12" width="36" height="24" rx="3"/>
        <line x1="-18" y1="-5" x2="18" y2="-5"/>
      </g>
      <text x="100" y="74" font-size="20" font-weight="700" fill="#0F1419" letter-spacing="-0.3">Client</text>
      <text x="100" y="94" font-size="12" fill="#6B7280">browser · app mobile</text>
      <text x="100" y="110" font-size="11" font-family="'JetBrains Mono', monospace" fill="#9CA3AF">React · Vue · Flutter</text>
    </g>

    <!-- Connecting lines (triangle) -->
    <line x1="490" y1="135" x2="290" y2="295" stroke="#0F1419" stroke-width="1.5" marker-end="url(#arr-bd)"/>
    <line x1="690" y1="135" x2="890" y2="295" stroke="#0F1419" stroke-width="1.5" marker-end="url(#arr-bd)"/>

    <!-- HTTP labels on client legs -->
    <rect x="328" y="200" width="60" height="22" rx="11" fill="#0F1419"/>
    <text x="358" y="215" font-size="11" font-weight="600" fill="#FFFFFF" text-anchor="middle">HTTP</text>

    <rect x="790" y="200" width="60" height="22" rx="11" fill="#0F1419"/>
    <text x="820" y="215" font-size="11" font-weight="600" fill="#FFFFFF" text-anchor="middle">HTTP</text>

    <!-- SERVER (bottom-left) -->
    <g transform="translate(80, 320)" filter="url(#soft-shadow-9)">
      <rect x="0" y="0" width="280" height="120" rx="14" fill="#FFFFFF" stroke="#0D9488" stroke-width="1.5"/>
      <text x="20" y="34" font-size="11" font-weight="700" fill="#0D9488" letter-spacing="2">VERTICE 02</text>
      <g transform="translate(50, 80)" stroke="#0F1419" stroke-width="1.5" fill="none" stroke-linecap="round" stroke-linejoin="round">
        <rect x="-15" y="-14" width="30" height="9" rx="1.5"/>
        <rect x="-15" y="-3" width="30" height="9" rx="1.5"/>
        <rect x="-15" y="8" width="30" height="9" rx="1.5"/>
        <circle cx="-10" cy="-9.5" r="0.8" fill="#0D9488" stroke="none"/>
      </g>
      <text x="100" y="74" font-size="20" font-weight="700" fill="#0F1419" letter-spacing="-0.3">Server</text>
      <text x="100" y="94" font-size="12" fill="#6B7280">logica · API</text>
      <text x="100" y="110" font-size="11" font-family="'JetBrains Mono', monospace" fill="#9CA3AF">Node · Laravel · Django</text>
    </g>

    <!-- DATABASE (bottom-right) -->
    <g transform="translate(820, 320)" filter="url(#soft-shadow-9)">
      <rect x="0" y="0" width="280" height="120" rx="14" fill="#FFFFFF" stroke="#BE123C" stroke-width="1.5"/>
      <text x="20" y="34" font-size="11" font-weight="700" fill="#BE123C" letter-spacing="2">VERTICE 03</text>
      <g transform="translate(50, 80)" stroke="#0F1419" stroke-width="1.5" fill="none" stroke-linecap="round" stroke-linejoin="round">
        <ellipse cx="0" cy="-12" rx="14" ry="4"/>
        <path d="M -14,-12 L -14,12 Q -14,16 0,16 Q 14,16 14,12 L 14,-12"/>
        <path d="M -14,-2 Q -14,2 0,2 Q 14,2 14,-2"/>
      </g>
      <text x="100" y="74" font-size="20" font-weight="700" fill="#0F1419" letter-spacing="-0.3">Database</text>
      <text x="100" y="94" font-size="12" fill="#6B7280">dati persistenti</text>
      <text x="100" y="110" font-size="11" font-family="'JetBrains Mono', monospace" fill="#9CA3AF">Postgres · MongoDB</text>
    </g>

    <!-- SQL/ORM connection between server and database -->
    <line x1="360" y1="380" x2="820" y2="380" stroke="#0F1419" stroke-width="1.5" marker-end="url(#arr-bd)"/>
    <rect x="556" y="365" width="68" height="22" rx="11" fill="#0F1419"/>
    <text x="590" y="380" font-size="11" font-weight="600" fill="#FFFFFF" text-anchor="middle">SQL / ORM</text>

    <!-- Critical rule banner -->
    <g transform="translate(80, 470)">
      <rect x="0" y="0" width="1040" height="60" rx="12" fill="#FEE2E2" stroke="#FCA5A5" stroke-dasharray="4 3"/>
      <g transform="translate(36, 30)" stroke="#991B1B" stroke-width="1.5" fill="none" stroke-linecap="round" stroke-linejoin="round">
        <circle cx="0" cy="0" r="11"/>
        <line x1="0" y1="-5" x2="0" y2="2" stroke-width="2"/>
        <circle cx="0" cy="6" r="1" fill="#991B1B" stroke="none"/>
      </g>
      <text x="64" y="38" font-size="14" fill="#991B1B" letter-spacing="-0.2">
        <tspan font-weight="700">Regola fondamentale:</tspan>
        <tspan fill="#7F1D1D"> il client non parla mai direttamente col database. Sempre attraverso il server.</tspan>
      </text>
    </g>

  </g>

  <!-- Bottom callout -->
  <g transform="translate(80, 720)">
    <text x="0" y="0" font-size="11" font-weight="700" fill="#9CA3AF" letter-spacing="2">PERCHÉ QUESTA SEPARAZIONE</text>
    <text x="0" y="22" font-size="13" fill="#0F1419" letter-spacing="-0.1">
      <tspan font-weight="600">Sicurezza</tspan>
      <tspan fill="#6B7280"> — il server fa da filtro autorizzato. </tspan>
      <tspan font-weight="600">Dati condivisi</tspan>
      <tspan fill="#6B7280"> — un solo posto centrale per tutti gli utenti. </tspan>
      <tspan font-weight="600">Capacità</tspan>
      <tspan fill="#6B7280"> — il browser non può fare email, pagamenti, AI calls.</tspan>
    </text>
  </g>

  <!-- FOOTER -->
  <text x="1120" y="788" font-size="11" fill="#D1D5DB" text-anchor="end" letter-spacing="1">VIBECODING SERIO  ·  09/16</text>
</svg>
